<?xml version="1.0" encoding="UTF-8" standalone="no"?>
<!DOCTYPE svg PUBLIC "-//W3C//DTD SVG 1.1//EN" "http://www.w3.org/Graphics/SVG/1.1/DTD/svg11.dtd">
<svg width="100%" height="100%" viewBox="0 0 3508 886" version="1.1" xmlns="http://www.w3.org/2000/svg" xmlns:xlink="http://www.w3.org/1999/xlink" xml:space="preserve" xmlns:serif="http://www.serif.com/" style="fill-rule:evenodd;clip-rule:evenodd;stroke-linecap:round;stroke-linejoin:round;stroke-miterlimit:10;">
    <g transform="matrix(1.325708,0,0,1.325708,-269.049356,-1143.359167)">
        <g transform="matrix(5.794316,0,0,1.849547,-43.549322,869.906867)">
            <path d="M192.215,327.961L48.673,327.961L49.159,327.149L49.461,326.891L49.871,326.816L50.281,326.738L50.695,326.652L51.105,326.562L51.516,326.469L51.926,326.371L52.336,326.266L52.75,326.152L53.16,326.031L53.57,325.906L53.98,325.773L54.391,325.633L54.805,325.48L55.215,325.324L55.625,325.156L56.035,324.98L56.445,324.793L56.855,324.598L57.27,324.391L57.68,324.172L58.09,323.941L58.5,323.699L58.91,323.445L59.324,323.176L59.734,322.891L60.145,322.594L60.555,322.281L60.965,321.953L61.379,321.609L61.789,321.246L62.199,320.867L62.609,320.469L63.02,320.055L63.434,319.617L63.844,319.16L64.254,318.68L64.664,318.18L65.074,317.652L65.488,317.105L65.898,316.535L66.309,315.934L66.719,315.312L67.129,314.66L67.543,313.98L67.953,313.273L68.363,312.535L68.773,311.766L69.184,310.969L69.598,310.137L70.008,309.27L70.418,308.371L70.828,307.438L71.238,306.465L71.652,305.461L72.062,304.414L72.473,303.332L72.883,302.207L73.293,301.043L73.707,299.836L74.117,298.59L74.527,297.301L74.938,295.965L75.348,294.586L75.762,293.16L76.172,291.691L76.582,290.172L76.992,288.605L77.402,286.992L77.816,285.328L78.227,283.617L78.637,281.852L79.047,280.039L79.457,278.172L79.871,276.254L80.281,274.285L80.691,272.262L81.102,270.184L81.512,268.055L81.926,265.871L82.336,263.633L82.746,261.344L83.156,258.996L83.566,256.598L83.98,254.145L84.391,251.637L84.801,249.078L85.211,246.461L85.621,243.797L86.035,241.078L86.445,238.305L86.855,235.48L87.266,232.609L87.676,229.684L88.09,226.711L88.5,223.691L88.91,220.625L89.32,217.508L89.73,214.352L90.145,211.148L90.555,207.902L90.965,204.617L91.375,201.293L91.785,197.93L92.199,194.531L92.609,191.098L93.02,187.633L93.43,184.141L93.84,180.617L94.254,177.066L94.664,173.496L95.074,169.902L95.484,166.289L95.895,162.66L96.309,159.016L96.719,155.359L97.129,151.699L97.539,148.031L97.949,144.359L98.363,140.688L98.773,137.02L99.184,133.355L99.594,129.703L100.004,126.059L100.418,122.434L100.828,118.828L101.238,115.242L101.648,111.68L102.059,108.148L102.469,104.648L102.883,101.184L103.293,97.754L103.703,94.371L104.113,91.027L104.523,87.738L104.938,84.496L105.348,81.309L105.758,78.184L106.168,75.117L106.578,72.117L106.992,69.184L107.402,66.32L107.812,63.531L108.223,60.82L108.633,58.191L109.047,55.641L109.457,53.18L109.867,50.809L110.277,48.523L110.688,46.336L111.102,44.246L111.512,42.254L111.922,40.359L112.332,38.57L112.742,36.887L113.156,35.312L113.566,33.844L113.977,32.488L114.387,31.246L114.797,30.117L115.211,29.102L115.621,28.203L116.031,27.422L116.441,26.762L116.852,26.219L117.266,25.797L117.676,25.492L118.086,25.312L118.496,25.25L118.906,25.312L119.32,25.492L119.73,25.797L120.141,26.219L120.551,26.762L120.961,27.422L121.375,28.203L121.785,29.102L122.195,30.117L122.605,31.246L123.016,32.488L123.43,33.844L123.84,35.312L124.25,36.887L124.66,38.57L125.07,40.359L125.484,42.254L125.895,44.246L126.305,46.336L126.715,48.523L127.125,50.809L127.539,53.18L127.949,55.641L128.359,58.191L128.77,60.82L129.18,63.531L129.594,66.32L130.004,69.184L130.414,72.117L130.824,75.117L131.234,78.184L131.648,81.309L132.059,84.496L132.469,87.738L132.879,91.027L133.289,94.371L133.703,97.754L134.113,101.184L134.523,104.648L134.934,108.148L135.344,111.68L135.758,115.242L136.168,118.828L136.578,122.434L136.988,126.059L137.398,129.703L137.812,133.355L138.223,137.02L138.633,140.688L139.453,148.031L139.867,151.699L140.277,155.359L140.688,159.016L141.098,162.66L141.508,166.289L141.922,169.902L142.332,173.496L142.742,177.066L143.152,180.617L143.562,184.141L143.977,187.633L144.387,191.098L144.797,194.531L145.207,197.93L145.617,201.293L146.031,204.617L146.441,207.902L146.852,211.148L147.262,214.352L147.672,217.508L148.086,220.625L148.496,223.691L148.906,226.711L149.316,229.684L149.727,232.609L150.137,235.48L150.551,238.305L150.961,241.078L151.371,243.797L151.781,246.461L152.191,249.078L152.605,251.637L153.016,254.145L153.426,256.598L153.836,258.996L154.246,261.344L154.66,263.633L155.07,265.871L155.48,268.055L155.891,270.184L156.301,272.262L156.715,274.285L157.125,276.254L157.535,278.172L157.945,280.039L158.355,281.852L158.77,283.617L159.18,285.328L159.59,286.992L160,288.605L160.41,290.172L160.824,291.691L161.234,293.16L161.645,294.586L162.055,295.965L162.465,297.301L162.879,298.59L163.289,299.836L163.699,301.043L164.109,302.207L164.52,303.332L164.934,304.414L165.344,305.461L165.754,306.465L166.164,307.438L166.574,308.371L166.988,309.27L167.398,310.137L167.809,310.969L168.219,311.766L168.629,312.535L169.043,313.273L169.453,313.98L169.863,314.66L170.273,315.312L170.684,315.934L171.098,316.535L171.508,317.105L171.918,317.652L172.328,318.18L172.738,318.68L173.152,319.16L173.562,319.617L173.973,320.055L174.383,320.469L174.793,320.867L175.207,321.246L175.617,321.609L176.027,321.953L176.438,322.281L176.848,322.594L177.262,322.891L177.672,323.176L178.082,323.445L178.492,323.699L178.902,323.941L179.316,324.172L179.727,324.391L180.137,324.598L180.547,324.793L180.957,324.98L181.371,325.156L181.781,325.324L182.191,325.48L182.602,325.633L183.012,325.773L183.426,325.906L183.836,326.031L184.246,326.152L184.656,326.266L185.066,326.371L185.48,326.469L185.891,326.562L186.301,326.652L186.711,326.738L187.121,326.816L187.535,326.891L187.945,326.961L188.766,327.086L189.176,327.145L189.59,327.199L190,327.25L190.82,327.344L191.23,327.387L192.215,327.961Z" style="fill:rgb(91,192,222);fill-rule:nonzero;stroke:white;stroke-width:1.42px;"/>
        </g>
        <g transform="matrix(4.039415,0,0,2.798852,-261.009318,558.571925)">
            <path d="M329.557,327.961L123.653,327.961L124.376,326.518L125.239,325.884L125.484,325.199L125.895,325.121L126.715,324.957L127.125,324.871L127.539,324.785L128.359,324.605L128.77,324.512L129.18,324.414L129.594,324.316L130.414,324.113L130.824,324.008L131.234,323.898L131.648,323.789L132.059,323.676L132.879,323.441L133.289,323.32L133.703,323.195L134.113,323.07L134.523,322.941L134.934,322.809L135.344,322.672L135.758,322.531L136.168,322.391L136.578,322.246L137.398,321.949L137.812,321.793L138.223,321.637L138.633,321.477L139.453,321.141L139.867,320.969L140.277,320.797L140.688,320.617L141.098,320.434L141.508,320.246L141.922,320.059L142.332,319.863L143.152,319.465L143.562,319.258L143.977,319.047L144.797,318.617L145.207,318.395L145.617,318.164L146.031,317.934L146.441,317.699L147.262,317.215L147.672,316.965L148.086,316.711L148.906,316.188L149.316,315.918L149.727,315.645L150.137,315.367L150.551,315.082L150.961,314.797L151.781,314.203L152.191,313.898L152.605,313.59L153.426,312.957L154.246,312.301L154.66,311.961L155.07,311.621L155.48,311.273L155.891,310.922L156.301,310.562L156.715,310.195L157.125,309.824L157.535,309.449L157.945,309.066L158.355,308.68L158.77,308.285L159.18,307.883L159.59,307.477L160,307.062L160.41,306.645L160.824,306.219L161.234,305.789L161.645,305.352L162.055,304.906L162.465,304.457L162.879,304L163.289,303.535L163.699,303.066L164.109,302.59L164.52,302.105L164.934,301.617L165.344,301.121L165.754,300.621L166.164,300.109L166.574,299.594L166.988,299.074L167.398,298.543L167.809,298.008L168.219,297.465L168.629,296.914L169.043,296.359L169.453,295.797L169.863,295.227L170.273,294.652L170.684,294.07L171.098,293.48L171.508,292.883L171.918,292.277L172.328,291.668L172.738,291.051L173.152,290.43L173.562,289.801L174.383,288.52L174.793,287.867L175.207,287.211L175.617,286.547L176.027,285.879L176.438,285.203L176.848,284.52L177.262,283.828L177.672,283.133L178.082,282.43L178.492,281.723L178.902,281.008L179.316,280.285L179.727,279.559L180.137,278.824L180.547,278.082L180.957,277.336L181.371,276.586L182.191,275.062L182.602,274.293L183.012,273.516L183.426,272.734L183.836,271.949L184.246,271.156L185.066,269.555L185.48,268.746L186.301,267.113L186.711,266.289L187.121,265.461L187.535,264.625L187.945,263.789L188.355,262.945L188.766,262.098L189.176,261.246L189.59,260.391L190,259.531L190.82,257.797L191.23,256.926L191.645,256.051L192.055,255.172L192.465,254.289L193.285,252.516L193.699,251.621L194.52,249.832L195.75,247.125L196.164,246.219L197.395,243.488L197.805,242.574L198.219,241.66L198.629,240.746L199.039,239.828L199.449,238.914L199.859,237.996L200.273,237.078L201.914,233.406L202.328,232.488L202.738,231.574L203.148,230.656L203.559,229.742L203.969,228.832L204.383,227.918L204.793,227.012L205.203,226.102L205.613,225.199L206.023,224.293L206.438,223.395L206.848,222.496L207.258,221.602L208.078,219.82L208.492,218.938L208.902,218.055L209.312,217.176L210.133,215.434L210.547,214.57L210.957,213.711L211.777,212.008L212.188,211.164L212.602,210.328L213.012,209.496L213.422,208.668L213.832,207.848L214.242,207.035L214.656,206.227L215.066,205.43L215.477,204.637L215.887,203.848L216.297,203.07L216.711,202.301C216.711,202.301 216.984,201.792 217.121,201.539C217.257,201.287 217.531,200.785 217.531,200.785L217.941,200.039L218.352,199.301L218.766,198.57L219.176,197.852L219.586,197.141L219.996,196.438L220.406,195.746L220.82,195.062L221.23,194.391L221.641,193.727L222.051,193.074L222.461,192.434L222.875,191.801L223.285,191.18L223.695,190.57L224.105,189.973L224.516,189.383L224.93,188.809L225.34,188.242L225.75,187.691L226.16,187.148L226.57,186.621L226.984,186.102L227.395,185.598L227.805,185.105L228.215,184.625L228.625,184.16L229.039,183.707L229.449,183.266L229.859,182.84L230.27,182.426L230.68,182.023L231.094,181.637L231.504,181.262L231.914,180.902L232.324,180.559L232.734,180.227L233.148,179.906L233.559,179.602L233.969,179.312L234.379,179.039L234.789,178.777L235.203,178.531L235.613,178.301L236.023,178.082L236.434,177.879L236.844,177.691L237.258,177.52L237.668,177.359L238.078,177.219L238.488,177.09L238.898,176.977L239.312,176.879L239.723,176.797L240.133,176.727L240.543,176.676L240.953,176.637L241.363,176.613L241.777,176.605L242.188,176.613L242.598,176.637L243.008,176.676L243.418,176.727L243.832,176.797L244.242,176.879L244.652,176.977L245.062,177.09L245.473,177.219L245.887,177.359L246.297,177.52L246.707,177.691L247.117,177.879L247.527,178.082L247.941,178.301L248.352,178.531L248.762,178.777L249.172,179.039L249.582,179.312L249.996,179.602L250.406,179.906L250.816,180.227L251.227,180.559L251.637,180.902L252.051,181.262L252.461,181.637L252.871,182.023L253.281,182.426L253.691,182.84L254.105,183.266L254.516,183.707L254.926,184.16L255.336,184.625L255.746,185.105L256.16,185.598L256.57,186.102L256.98,186.621L257.391,187.148L257.801,187.691L258.215,188.242L258.625,188.809L259.035,189.383L259.445,189.973L259.855,190.57L260.27,191.18L260.68,191.801L261.09,192.434L261.5,193.074L261.91,193.727L262.324,194.391L262.734,195.062L263.145,195.746L263.555,196.438L263.965,197.141L264.379,197.852L264.789,198.57L265.199,199.301L265.609,200.039L266.02,200.785L266.434,201.539L266.844,202.301L267.254,203.07L267.664,203.848L268.074,204.637L268.488,205.43L268.898,206.227L269.309,207.035L269.719,207.848L270.543,209.496L270.953,210.328L271.363,211.164L271.773,212.008L272.184,212.859L272.598,213.711L273.008,214.57L273.418,215.434L274.238,217.176L274.652,218.055L275.473,219.82L276.293,221.602L276.707,222.496L277.527,224.293L277.938,225.199L278.348,226.102L278.762,227.012L279.172,227.918L279.582,228.832L279.992,229.742L280.402,230.656L280.816,231.574L281.227,232.488L282.457,235.242L282.871,236.16L284.102,238.914L284.512,239.828L284.926,240.746L286.156,243.488L286.977,245.309L287.391,246.219L287.801,247.125L289.031,249.832L289.445,250.727L290.266,252.516L291.086,254.289L291.5,255.172L291.91,256.051L292.32,256.926L292.73,257.797L293.141,258.664L293.555,259.531L293.965,260.391L294.375,261.246L294.785,262.098L295.195,262.945L295.609,263.789L296.43,265.461L296.84,266.289L297.25,267.113L297.664,267.93L298.074,268.746L298.484,269.555L299.305,271.156L299.719,271.949L300.129,272.734L300.539,273.516L300.949,274.293L301.359,275.062L301.773,275.824L302.184,276.586L302.594,277.336L303.004,278.082L303.414,278.824L303.828,279.559L304.238,280.285L304.648,281.008L305.059,281.723L305.469,282.43L305.883,283.133L306.293,283.828L306.703,284.52L307.113,285.203L307.523,285.879L307.938,286.547L308.348,287.211L308.758,287.867L309.168,288.52L309.578,289.16L309.992,289.801L310.402,290.43L310.812,291.051L311.223,291.668L311.633,292.277L312.047,292.883L312.457,293.48L312.867,294.07L313.277,294.652L313.688,295.227L314.102,295.797L314.512,296.359L314.922,296.914L315.332,297.465L315.742,298.008L316.156,298.543L316.566,299.074L316.977,299.594L317.387,300.109L317.797,300.621L318.211,301.121L318.621,301.617L319.031,302.105L319.441,302.59L319.852,303.066L320.266,303.535L320.676,304L321.086,304.457L321.496,304.906L321.906,305.352L322.32,305.789L322.73,306.219L323.141,306.645L323.551,307.062L323.961,307.477L324.375,307.883L324.785,308.285L325.195,308.68L325.605,309.066L326.016,309.449L326.43,309.824L326.84,310.195L327.25,310.562L327.66,310.922L328.07,311.273L329.557,312.835L329.557,327.961Z" style="fill:rgb(67,172,106);fill-rule:nonzero;stroke:white;stroke-width:1.76px;"/>
        </g>
        <g transform="matrix(0.912294,0,0,1.203843,86.255042,-300.971468)">
            <path d="M166.857,1476.486L238.79,1264.675L363.772,1166.041L468.188,1302.098L597.916,1264.675L670.69,1390.693L906.416,1476.486L166.857,1476.486Z" style="fill:rgb(0,140,186);stroke:white;stroke-width:5.59px;"/>
        </g>
    </g>
    <g transform="matrix(5.260472,0,0,5.260472,-345.581468,-7841.10303)">
        <g transform="matrix(100.805278,0,0,100.805278,721.393752,1625.476064)">
        </g>
        <text x="293.072px" y="1625.476px" style="font-family:'NotoSans-Regular', 'Noto Sans', sans-serif;font-size:100.805px;fill:rgb(73,80,87);">StatT<tspan x="526.739px " y="1625.476px ">e</tspan>rr<tspan x="664.842px " y="1625.476px ">a</tspan></text>
    </g>
</svg>
